<?xml version="1.0" encoding="UTF-8"?>
<svg version="1.1" xmlns="http://www.w3.org/2000/svg" width="512" height="512">
<path d="M0 0 C1.2640198 -0.00384115 2.5280396 -0.00768229 3.83036304 -0.01163983 C5.23583275 -0.01085959 6.64130241 -0.0099808 8.046772 -0.00901413 C9.5377012 -0.01159775 11.0286297 -0.0146109 12.51955724 -0.01801753 C16.62244813 -0.02609111 20.72532152 -0.0278773 24.82821941 -0.028615 C29.25097944 -0.03046492 33.67373037 -0.03801194 38.09648514 -0.04475021 C47.77002939 -0.05833649 57.44356949 -0.06435868 67.1171217 -0.06876087 C73.15626679 -0.07152273 79.19541028 -0.07575998 85.23455429 -0.08026505 C101.95220591 -0.09245798 118.66985624 -0.10275732 135.38751221 -0.10614014 C136.4576345 -0.1063597 137.52775679 -0.10657927 138.63030703 -0.10680549 C139.70300213 -0.10702377 140.77569723 -0.10724204 141.88089824 -0.10746694 C144.05461804 -0.1079104 146.22833784 -0.10835697 148.40205765 -0.10880661 C149.48029971 -0.10902804 150.55854176 -0.10924947 151.66945782 -0.10947761 C169.14283928 -0.11342605 186.61617904 -0.13088139 204.08954439 -0.15416613 C222.02526814 -0.17787428 239.96097096 -0.19034174 257.89671063 -0.19150805 C267.96855136 -0.1924251 278.04033777 -0.19818499 288.11216354 -0.21632767 C296.68818674 -0.23172138 305.26413883 -0.23685341 313.84017321 -0.22858956 C318.21582145 -0.22468051 322.59132644 -0.22562511 326.96695709 -0.23964691 C330.97408236 -0.25237041 334.98095652 -0.25120202 338.98808137 -0.2390562 C340.43627999 -0.23709651 341.88449631 -0.24019021 343.33267006 -0.24890056 C354.1574455 -0.30987672 361.88685905 0.51688177 370.04854202 8.10017776 C376.44801811 15.21070676 378.01756656 22.36253888 378.05366898 31.70393753 C378.06024017 32.44926743 378.06681137 33.19459732 378.0735817 33.96251297 C378.09320986 36.41595447 378.10494924 38.86933529 378.11494827 41.32283401 C378.1190238 42.16276335 378.12309933 43.00269268 378.12729836 43.86807442 C378.14810703 48.30766297 378.16243526 52.74722101 378.17183304 57.18684769 C378.18293076 61.77254995 378.21738367 66.35777143 378.25700474 70.94330311 C378.28311755 74.47174367 378.29151973 78.00006818 378.29511452 81.52859688 C378.29998858 83.21951383 378.3116259 84.91042531 378.33015251 86.60124779 C378.3544478 88.96399581 378.35359806 91.32547839 378.34663773 93.68831253 C378.36585281 94.73496834 378.36585281 94.73496834 378.38545609 95.80276871 C378.34958721 99.14057652 378.08717455 100.85695964 376.0308876 103.53802872 C373.2239912 105.61418846 371.36219221 106.0602946 367.87666702 106.13142776 C363.31144963 104.00099298 363.31144963 104.00099298 361.87666702 101.13142776 C361.7708114 98.79436592 361.73055381 96.45425538 361.71895218 94.1148262 C361.71387146 93.39265411 361.70879074 92.67048203 361.70355606 91.92642593 C361.69284426 90.35551802 361.68422726 88.78459477 361.67743683 87.21366501 C361.66565476 84.7250101 361.64620239 82.23652927 361.62431717 79.74794388 C361.56268775 72.67124119 361.50870807 65.5945548 361.47529984 58.51765823 C361.45432097 54.19042869 361.4189884 49.863514 361.37454224 45.53646469 C361.36040341 43.88913817 361.35166458 42.24175592 361.34848785 40.5943718 C361.34356338 38.28445026 361.32036587 35.97535938 361.29317093 33.66560745 C361.28508408 32.35259659 361.27699722 31.03958572 361.26866531 29.68678665 C360.8441923 25.83688748 359.89798953 23.41562642 357.87666702 20.13142776 C304.36246227 -19.66118602 224.56324978 15.48057218 157.87666702 15.13142776 C157.87666702 174.19142776 157.87666702 333.25142776 157.87666702 497.13142776 C259.48838787 506.60569409 259.48838787 506.60569409 356.87666702 493.13142776 C360.6580266 489.22808885 361.00176528 485.48328271 361.00415897 480.2164669 C361.00716662 478.97348843 361.01017427 477.73050995 361.01327306 476.44986546 C361.01158539 475.06296792 361.00981432 473.67607047 361.0079689 472.28917313 C361.00967041 470.82171792 361.01181981 469.35426318 361.01438016 467.88680923 C361.0189839 464.68968605 361.02039671 461.49258224 361.0194149 458.29545593 C361.01782459 453.09412497 361.0230189 447.8928133 361.02904129 442.69148636 C361.03716019 435.14009609 361.04210012 427.5887092 361.04533195 420.03731537 C361.05082355 408.10593363 361.06771557 396.17458055 361.08667374 384.24321365 C361.09303068 380.16328244 361.09933907 376.08335116 361.1056509 372.00341988 C361.10723466 370.98376345 361.10881843 369.96410701 361.11045018 368.9135519 C361.12839272 357.30242274 361.14461662 345.69129155 361.15962601 334.08015823 C361.16100188 333.01850743 361.16237775 331.95685663 361.16379531 330.86303459 C361.18573274 313.6527111 361.19648321 296.44239497 361.20399676 279.23205997 C361.21206166 261.57320398 361.23533136 243.91441119 361.27195042 226.25559127 C361.29400217 215.35734885 361.30363192 204.45923629 361.29745009 193.56097268 C361.29428074 186.09524976 361.30557084 178.62963793 361.3283445 171.16394939 C361.34103929 166.85346271 361.34714973 162.54322342 361.33592796 158.23272705 C361.32579151 154.28853767 361.33394169 150.34482952 361.35679092 146.40069722 C361.36180279 144.97204724 361.36002396 143.54335438 361.35085825 142.11472501 C361.33939473 140.17586181 361.35482799 138.23689501 361.37165165 136.29807091 C361.37311686 134.68119289 361.37311686 134.68119289 361.37461168 133.03165066 C362.00527519 129.388497 363.26316416 127.70945837 365.87666702 125.13142776 C369.31416702 124.50642776 369.31416702 124.50642776 372.87666702 125.13142776 C375.96116832 127.60569343 377.65945918 129.12055 378.50111151 133.03757071 C378.50070293 134.65868337 378.50070293 134.65868337 378.5002861 136.31254578 C378.51209144 137.56400635 378.52389678 138.81546691 378.53605986 140.10485053 C378.52386802 141.49097196 378.51120687 142.87708933 378.49812698 144.26320267 C378.50245575 145.73779001 378.50897154 147.21237228 378.51748705 148.68694139 C378.53450367 152.74024873 378.52028011 156.79293974 378.50097227 160.84621477 C378.4855646 165.21718917 378.49894232 169.58808708 378.50871658 173.95906448 C378.52325721 182.52340124 378.51099403 191.08750127 378.48960334 199.65181562 C378.46560647 209.62544949 378.46730701 219.59902895 378.46990925 229.57268527 C378.4736013 247.37128664 378.45276007 265.16977645 378.41865921 282.96834183 C378.38558667 300.2365997 378.37139737 317.50474042 378.37764359 334.77302933 C378.38441054 353.57343335 378.38193715 372.37378826 378.36228418 391.17418504 C378.36072496 392.66616703 378.36072496 392.66616703 378.35913423 394.18829007 C378.35704333 396.18599356 378.35493235 398.18369702 378.35280105 400.18140046 C378.34590932 407.13178552 378.34523554 414.08215543 378.3466835 421.03254318 C378.3481246 429.50716003 378.33840746 437.98168141 378.31473714 446.45626661 C378.30289158 450.77937432 378.29574233 455.10234911 378.30157471 459.42547226 C378.30675958 463.38575816 378.29801239 467.3457637 378.27830011 471.30600169 C378.27357386 472.73600863 378.27384303 474.16604299 378.27971047 475.5960457 C378.32240911 487.11914472 377.18098506 496.61234288 368.87666702 505.13142776 C362.52599514 510.20314489 357.88130281 512.253593 349.75333405 512.26285553 C347.85730434 512.26861725 347.85730434 512.26861725 345.92297101 512.27449536 C344.5175013 512.27371512 343.11203164 512.27283633 341.70656204 512.27186966 C340.21563285 512.27445328 338.72470435 512.27746643 337.23377681 512.28087306 C333.13088592 512.28894664 329.02801252 512.29073283 324.92511463 512.29147053 C320.50235461 512.29332045 316.07960368 512.30086747 311.65684891 512.30760574 C301.98330466 512.32119202 292.30976455 512.32721421 282.63621235 512.3316164 C276.59706726 512.33437826 270.55792377 512.33861551 264.51877975 512.34312057 C247.80112814 512.35531351 231.08347781 512.36561285 214.36582184 512.36899567 C213.29569955 512.36921523 212.22557725 512.3694348 211.12302701 512.36966102 C210.05033191 512.3698793 208.97763682 512.37009757 207.87243581 512.37032247 C205.698716 512.37076593 203.5249962 512.3712125 201.3512764 512.37166214 C200.27303434 512.37188357 199.19479228 512.372105 198.08387622 512.37233314 C180.61049477 512.37628158 163.13715501 512.39373692 145.66378966 512.41702166 C127.72806591 512.44072981 109.79236309 512.45319727 91.85662341 512.45436358 C81.78478268 512.45528063 71.71299628 512.46104052 61.6411705 512.4791832 C53.0651473 512.49457691 44.48919522 512.49970894 35.91316083 512.49144509 C31.53751259 512.48753604 27.1620076 512.48848064 22.78637695 512.50250244 C18.77925169 512.51522594 14.77237752 512.51405755 10.76525268 512.50191173 C9.31705406 512.49995204 7.86883774 512.50304574 6.42066398 512.51175609 C-4.40411145 512.57273225 -12.133525 511.74597376 -20.29520798 504.16267776 C-26.78137748 496.95582276 -28.27773206 489.75497943 -28.25476074 480.29486847 C-28.25681338 479.50839023 -28.25886601 478.72191198 -28.26098084 477.91160107 C-28.26665236 475.26621268 -28.26519341 472.62087634 -28.26377487 469.97548294 C-28.26635841 468.06367392 -28.26937154 466.15186544 -28.27277827 464.24005771 C-28.2808527 458.97839703 -28.28263809 453.71674999 -28.28337574 448.45508385 C-28.2852255 442.78350457 -28.29277242 437.11193239 -28.29951096 431.44035721 C-28.31309758 419.03548689 -28.31911941 406.63061981 -28.32352161 394.22574329 C-28.32628327 386.48217386 -28.33052046 378.73860567 -28.33502579 370.99503708 C-28.34721849 349.56096448 -28.35755344 328.12689352 -28.36090088 306.69281769 C-28.36112251 305.30692682 -28.3613443 303.92103596 -28.36156623 302.53514509 C-28.36178687 301.14591657 -28.36200735 299.75668805 -28.36222768 298.36745954 C-28.36267023 295.58044894 -28.36311735 292.79343835 -28.36356735 290.00642776 C-28.36367674 289.31541202 -28.36378613 288.62439627 -28.36389884 287.91244065 C-28.36752985 265.50390943 -28.38345203 243.09541055 -28.40675772 220.68689171 C-28.43135486 196.99331247 -28.44506692 173.29975712 -28.4462688 149.60616374 C-28.44718609 136.69111788 -28.45295203 123.77611438 -28.47108841 110.86108017 C-28.48647564 99.86490155 -28.49161796 88.86877838 -28.48335031 77.87259105 C-28.47943905 72.26141121 -28.48039673 66.65034309 -28.49440765 61.03917694 C-28.50711769 55.90206605 -28.50597448 50.76515115 -28.49381694 45.62804064 C-28.49185494 43.77003232 -28.49496156 41.91201026 -28.5036613 40.05402127 C-28.55841175 27.57029283 -28.3563284 16.60320755 -19.12333298 7.13142776 C-12.7726611 2.05971064 -8.12796876 0.00926253 0 0 Z M-7.12333298 18.13142776 C-11.87533262 23.00527356 -12.27063466 27.13330518 -12.25476074 33.66780186 C-12.25681338 34.44611771 -12.25886601 35.22443356 -12.26098084 36.02633473 C-12.26667251 38.65597061 -12.26519093 41.28555448 -12.26377487 43.91519547 C-12.26635726 45.81091726 -12.26937007 47.70663851 -12.27277827 49.602359 C-12.28086627 54.82872394 -12.28263884 60.05507516 -12.28337574 65.28144562 C-12.28522316 70.91142085 -12.29276888 76.54138891 -12.29951096 82.17136002 C-12.31310728 94.48937324 -12.31912093 106.80738321 -12.32352161 119.12540269 C-12.32628168 126.81231967 -12.33051858 134.49923538 -12.33502579 142.1861515 C-12.34721984 163.45630232 -12.35755448 184.72645181 -12.36090088 205.99660587 C-12.36112251 207.37234975 -12.3613443 208.74809363 -12.36156623 210.12383751 C-12.36178687 211.50292743 -12.36200735 212.88201735 -12.36222768 214.26110727 C-12.36267023 217.02785798 -12.36311735 219.79460869 -12.36356735 222.56135941 C-12.36367674 223.24735383 -12.36378613 223.93334826 -12.36389884 224.64013039 C-12.36753036 246.88898992 -12.38345382 269.13781688 -12.40675772 291.38666394 C-12.43134356 314.90236213 -12.4450664 338.4180351 -12.4462688 361.93374842 C-12.44718671 374.75538997 -12.45296829 387.57698887 -12.47108841 400.3986187 C-12.48646095 411.3147825 -12.4916267 422.23089049 -12.48335031 433.14706305 C-12.47943378 438.7193775 -12.48042219 444.29157944 -12.49440765 449.86388016 C-12.50708647 454.96205559 -12.50600227 460.06003329 -12.49381694 465.15820821 C-12.49184947 467.00545586 -12.49498647 468.85271722 -12.5036613 470.69994555 C-12.51468794 473.20604915 -12.50731269 475.71144679 -12.49526978 478.21753025 C-12.50286497 478.93890953 -12.51046016 479.66028881 -12.51828551 480.40352806 C-12.47002002 485.03886968 -11.58396421 488.20426369 -9.12333298 492.13142776 C30.44714913 523.28265836 91.51574743 497.13142776 141.87666702 497.13142776 C141.87666702 338.07142776 141.87666702 179.01142776 141.87666702 15.13142776 C65.79518781 7.91009508 65.79518781 7.91009508 -7.12333298 18.13142776 Z " fill="#000000" transform="translate(81.12333297729492,-0.13142776489257813)"/>
<path d="M0 0 C0.77730469 0.50144531 1.55460937 1.00289062 2.35546875 1.51953125 C13.99097306 9.75049902 23.22967521 24.20022126 25.75390625 38.3046875 C27.47622524 57.16818119 24.6493561 73.39808466 12.8125 88.75 C2.7364867 100.48280743 -10.73068623 107.83782494 -26 110 C-42.43933892 111.18233669 -57.51859662 107.9952484 -70.8984375 97.7890625 C-73.37320276 95.61156634 -75.70403799 93.36411673 -78 91 C-78.84111328 90.18982422 -78.84111328 90.18982422 -79.69921875 89.36328125 C-89.55786762 79.09062088 -93.93440083 64.0698926 -94.4375 50.1875 C-93.95871871 31.49421298 -86.37910161 16.79342274 -73 4 C-52.34215861 -13.57362246 -22.47796346 -14.80605886 0 0 Z M-68 22 C-72.5163285 27.50102067 -75.18832804 33.14539043 -77 40 C-77.226875 40.804375 -77.45375 41.60875 -77.6875 42.4375 C-78.98166907 53.04968639 -77.43885941 63.67624102 -72 73 C-69.2411404 71.9161623 -67.98966607 70.98691035 -66.125 68.625 C-63.7377081 65.67599236 -61.21713548 63.97415131 -58 62 C-58.165 61.113125 -58.33 60.22625 -58.5 59.3125 C-59.84395337 49.25321266 -60.10307717 40.52885721 -54 32 C-49.18472271 26.36027077 -43.24567153 23.72492965 -35.96484375 22.71875 C-28.36034594 22.35591114 -20.78821066 25.13264103 -15 30 C-10.29777351 35.51205439 -8.24028674 41.79139772 -8 49 C-8.45904239 51.05126372 -8.95984107 53.09358889 -9.5 55.125 C-10.26559347 58.08616204 -10.26559347 58.08616204 -10 61 C-7.76339796 63.94312555 -5.4049007 65.94632448 -2.453125 68.16015625 C0 70 0 70 2 73 C2.66 73 3.32 73 4 73 C9.73913699 62.28694429 11.87468582 51.87280279 9.3125 39.74609375 C5.88762984 28.57245484 -0.78466524 18.43944881 -10.86328125 12.23828125 C-31.42223395 1.44940264 -51.99095443 5.34737471 -68 22 Z M-42.8125 42.75 C-44.57098729 46.08187066 -44.51262487 48.28346973 -44 52 C-42.20976215 54.97046873 -40.14995172 57.42502414 -37 59 C-32.34591099 59.4136968 -29.74760524 58.81070393 -26 56 C-23.31666772 51.97500157 -23.20360781 48.72857864 -24 44 C-26.54525912 40.29780492 -28.18864925 39.2318145 -32.5 38 C-37.32773113 38 -39.42288871 39.47727186 -42.8125 42.75 Z M-57 82 C-58.26946267 84.16311454 -58.26946267 84.16311454 -59 86 C-48.90618405 93.13333921 -39.31801746 95.03358078 -27 94 C-20.14128584 92.78130286 -14.65583657 89.99700182 -9 86 C-11.79780435 80.20805414 -15.14387125 75.92806438 -21 73 C-24.48058025 73.15793392 -24.48058025 73.15793392 -26.796875 73.6328125 C-29.22966709 74.03827785 -31.53435662 74.11743668 -34 74.125 C-34.845625 74.12886719 -35.69125 74.13273437 -36.5625 74.13671875 C-38.87740188 74.0068765 -40.77290535 73.53468465 -43 72.9375 C-48.99587931 72.00752688 -53.39533505 77.892826 -57 82 Z " fill="#000000" transform="translate(180,66)"/>
<path d="M0 0 C0.9271431 -0.0049649 1.85428619 -0.00992981 2.80952454 -0.01504517 C5.88108051 -0.02966709 8.95258484 -0.03646896 12.02416992 -0.04199219 C14.15785219 -0.04774374 16.29153444 -0.05350148 18.42521667 -0.05926514 C22.9016443 -0.0697753 27.37805396 -0.07561783 31.85449219 -0.07910156 C37.58784874 -0.0845854 43.32096771 -0.10861115 49.05424976 -0.13707352 C53.46291292 -0.15570611 57.87151892 -0.16090584 62.28021812 -0.16243744 C64.39370713 -0.16546323 66.50719515 -0.17348927 68.62064552 -0.18662262 C71.5793116 -0.20369536 74.53739827 -0.20179971 77.49609375 -0.1953125 C78.36747986 -0.20452728 79.23886597 -0.21374207 80.13665771 -0.22323608 C85.84736343 -0.18405299 90.23909253 0.63786172 94.58666992 4.69628906 C99.6347712 11.29765228 99.16128379 16.60874519 99.18237305 24.65429688 C99.19204173 26.88873036 99.22304569 29.12222923 99.25463867 31.35644531 C99.26117276 32.78612737 99.26642164 34.21581599 99.27026367 35.64550781 C99.27960938 36.94198242 99.28895508 38.23845703 99.29858398 39.57421875 C98.79476888 44.644117 97.25763515 47.91487299 93.56713867 51.41113281 C88.00058155 55.12217089 83.46108747 55.45498393 76.94848633 55.43579102 C76.05191818 55.44090195 75.15535004 55.44601288 74.23161316 55.45127869 C71.27307425 55.46515822 68.31476874 55.46421902 65.35620117 55.46191406 C63.2950329 55.46580212 61.23386542 55.47013702 59.17269897 55.47489929 C54.85363162 55.48235815 50.534646 55.48207279 46.21557617 55.47680664 C40.68861393 55.47101499 35.16198713 55.48793741 29.63508034 55.51115131 C25.37820488 55.52590458 21.12140989 55.52675813 16.8645134 55.52364159 C14.82721671 55.52415408 12.78991543 55.52937825 10.75264359 55.53945351 C7.89973604 55.55183021 5.04747773 55.54501852 2.19458008 55.53344727 C1.35798355 55.541091 0.52138702 55.54873474 -0.34056091 55.55661011 C-7.01256458 55.49698629 -11.70185184 54.20300771 -16.87036133 49.72363281 C-22.03732751 43.670901 -21.43021003 37.61285052 -21.4284668 29.99926758 C-21.43282675 27.86555347 -21.46912982 25.7339326 -21.50708008 23.60058594 C-21.61314367 10.84898992 -21.61314367 10.84898992 -17.05786133 5.16113281 C-11.62429193 0.12514167 -7.14032147 0.00909658 0 0 Z M-5.05786133 16.16113281 C-5.05786133 23.75113281 -5.05786133 31.34113281 -5.05786133 39.16113281 C23.98213867 39.16113281 53.02213867 39.16113281 82.94213867 39.16113281 C82.94213867 31.57113281 82.94213867 23.98113281 82.94213867 16.16113281 C53.90213867 16.16113281 24.86213867 16.16113281 -5.05786133 16.16113281 Z " fill="#000000" transform="translate(107.057861328125,389.8388671875)"/>
<path d="M0 0 C0.9271431 -0.0049649 1.85428619 -0.00992981 2.80952454 -0.01504517 C5.88108051 -0.02966709 8.95258484 -0.03646896 12.02416992 -0.04199219 C14.15785219 -0.04774374 16.29153444 -0.05350148 18.42521667 -0.05926514 C22.9016443 -0.0697753 27.37805396 -0.07561783 31.85449219 -0.07910156 C37.58784874 -0.0845854 43.32096771 -0.10861115 49.05424976 -0.13707352 C53.46291292 -0.15570611 57.87151892 -0.16090584 62.28021812 -0.16243744 C64.39370713 -0.16546323 66.50719515 -0.17348927 68.62064552 -0.18662262 C71.5793116 -0.20369536 74.53739827 -0.20179971 77.49609375 -0.1953125 C78.36747986 -0.20452728 79.23886597 -0.21374207 80.13665771 -0.22323608 C85.84736343 -0.18405299 90.23909253 0.63786172 94.58666992 4.69628906 C99.6347712 11.29765228 99.16128379 16.60874519 99.18237305 24.65429688 C99.19204173 26.88873036 99.22304569 29.12222923 99.25463867 31.35644531 C99.26117276 32.78612737 99.26642164 34.21581599 99.27026367 35.64550781 C99.27960938 36.94198242 99.28895508 38.23845703 99.29858398 39.57421875 C98.79775742 44.61404328 97.24970035 47.88891064 93.62963867 51.41113281 C87.89090492 55.1479827 82.55728899 55.45563711 75.92675781 55.43579102 C75.03979721 55.44090195 74.15283661 55.44601288 73.23899841 55.45127869 C70.3183612 55.46513463 67.39796102 55.464221 64.47729492 55.46191406 C62.43997612 55.46580302 60.40265813 55.47013811 58.36534119 55.47489929 C54.0993283 55.48235279 49.83339819 55.4820764 45.56738281 55.47680664 C40.10882901 55.47101146 34.65061446 55.48794854 29.19211674 55.51115131 C24.9858554 55.52590397 20.77967549 55.52675829 16.57339287 55.52364159 C14.56121587 55.52415397 12.54903422 55.52937608 10.5368824 55.53945351 C7.7200038 55.55183098 4.90378264 55.54501843 2.08691406 55.53344727 C0.84840195 55.54491287 0.84840195 55.54491287 -0.41513062 55.55661011 C-7.03672051 55.49668408 -11.69317452 54.15797945 -16.87036133 49.78613281 C-22.04935637 43.57133876 -21.3984204 37.05204225 -21.37353516 29.29614258 C-21.37037571 27.23302327 -21.39386068 25.17134079 -21.41918945 23.10839844 C-21.41983398 21.79677734 -21.42047852 20.48515625 -21.42114258 19.13378906 C-21.42412354 17.94019775 -21.42710449 16.74660645 -21.43017578 15.5168457 C-20.94570747 11.15027724 -19.53171023 7.7769932 -16.55786133 4.51660156 C-10.99857804 0.1878888 -6.83824215 0.00871174 0 0 Z M-5.05786133 16.16113281 C-5.05786133 23.75113281 -5.05786133 31.34113281 -5.05786133 39.16113281 C23.98213867 39.16113281 53.02213867 39.16113281 82.94213867 39.16113281 C82.94213867 31.57113281 82.94213867 23.98113281 82.94213867 16.16113281 C53.90213867 16.16113281 24.86213867 16.16113281 -5.05786133 16.16113281 Z " fill="#000000" transform="translate(107.057861328125,230.8388671875)"/>
<path d="M0 0 C0.877061 -0.0049649 1.75412201 -0.00992981 2.65776062 -0.01504517 C5.55130811 -0.02961761 8.4448008 -0.03646001 11.33837891 -0.04199219 C13.35470582 -0.04774696 15.37103272 -0.05350466 17.38735962 -0.05926514 C21.61224624 -0.06976063 25.8371139 -0.07561303 30.06201172 -0.07910156 C35.46788553 -0.08458821 40.87350772 -0.10862612 46.2793026 -0.13707352 C50.44351936 -0.15572139 54.60767571 -0.16090661 58.77193069 -0.16243744 C60.76457726 -0.1654588 62.75722289 -0.17346984 64.74982834 -0.18662262 C67.54044378 -0.20373064 70.33044674 -0.20179143 73.12109375 -0.1953125 C73.9389888 -0.20452728 74.75688385 -0.21374207 75.5995636 -0.22323608 C82.21544968 -0.17526628 86.88048235 1.15960163 92.00244141 5.59863281 C97.26228798 11.76016737 96.56225819 18.05805202 96.56054688 25.80517578 C96.5649141 28.0222694 96.60123768 30.23736064 96.63916016 32.45410156 C96.64503035 33.87466772 96.64899839 35.29524327 96.65087891 36.71582031 C96.65909668 37.99956543 96.66731445 39.28331055 96.67578125 40.60595703 C95.94714811 45.93779414 93.53605602 48.97526994 89.56494141 52.47363281 C86.12021978 54.92119818 84.3455688 55.2913788 80.16113281 55.32226562 C79.11309479 55.33187317 78.06505676 55.34148071 76.98526001 55.35137939 C75.28060074 55.35775421 75.28060074 55.35775421 73.54150391 55.36425781 C71.79539322 55.37280792 71.79539322 55.37280792 70.01400757 55.38153076 C67.54759635 55.39099003 65.08117245 55.39751841 62.61474609 55.40136719 C58.83750412 55.41107483 55.06080562 55.44209115 51.28369141 55.47363281 C48.89046548 55.48016243 46.49723565 55.48541306 44.10400391 55.48925781 C42.97161285 55.50160461 41.8392218 55.51395142 40.67251587 55.52667236 C39.61817352 55.52367126 38.56383118 55.52067017 37.47753906 55.51757812 C36.55091461 55.52122375 35.62429016 55.52486938 34.66958618 55.52862549 C31.68301714 55.08600473 30.33428731 54.26612073 28.18994141 52.16113281 C27.31712992 48.73223055 26.86071312 46.26853705 27.87744141 42.84863281 C29.487868 40.77808434 30.76782728 40.15437506 33.18994141 39.16113281 C35.45526123 38.92062378 35.45526123 38.92062378 37.95849609 38.93408203 C39.36950592 38.93430862 39.36950592 38.93430862 40.809021 38.93453979 C41.81644348 38.94486237 42.82386597 38.95518494 43.86181641 38.96582031 C45.41814789 38.97006516 45.41814789 38.97006516 47.00592041 38.97439575 C50.31737842 38.98558416 53.62856524 39.01068654 56.93994141 39.03613281 C59.18603125 39.04616433 61.43212533 39.05528988 63.67822266 39.06347656 C69.18231725 39.0838169 74.68582603 39.12296868 80.18994141 39.16113281 C80.18994141 31.57113281 80.18994141 23.98113281 80.18994141 16.16113281 C37.12494141 16.65613281 37.12494141 16.65613281 -6.81005859 17.16113281 C-7.14005859 24.42113281 -7.47005859 31.68113281 -7.81005859 39.16113281 C-4.51005859 39.16113281 -1.21005859 39.16113281 2.18994141 39.16113281 C6.7030993 41.1874486 6.7030993 41.1874486 8.18994141 44.16113281 C8.76184161 50.33765502 8.76184161 50.33765502 6.66259766 53.36035156 C3.29094399 55.81585289 0.32407681 55.71265409 -3.68505859 55.59863281 C-4.72726563 55.60926758 -4.72726563 55.60926758 -5.79052734 55.62011719 C-11.24707407 55.5533233 -15.38592545 54.37221863 -19.45458984 50.66113281 C-24.53857454 44.13186818 -24.05875583 38.58650022 -24.10522461 30.55688477 C-24.11670698 29.17689734 -24.13709962 27.79695301 -24.16674805 26.41723633 C-24.3410776 18.29776433 -24.44755853 12.00856052 -19.81005859 5.16113281 C-13.58624855 -0.00330531 -7.70814223 0.01048322 0 0 Z " fill="#000000" transform="translate(109.81005859375,309.8388671875)"/>
<path d="M0 0 C1.20012222 -0.00426498 2.40024445 -0.00852997 3.63673401 -0.01292419 C4.95524857 -0.01247101 6.27376312 -0.01201782 7.63223267 -0.0115509 C9.03341257 -0.01454274 10.43459166 -0.01794533 11.83576965 -0.02172852 C15.64366192 -0.03057048 19.45153173 -0.03290672 23.25943327 -0.0335443 C26.43784975 -0.03449351 29.616261 -0.03817197 32.79467547 -0.0417164 C40.29375322 -0.04986181 47.79281897 -0.05230056 55.29190063 -0.05158997 C63.02799193 -0.05098923 70.76401349 -0.06153997 78.50008714 -0.07733363 C85.14136311 -0.09040913 91.78261628 -0.09577385 98.42390501 -0.09513456 C102.39065414 -0.09487956 106.3573413 -0.09773169 110.32407761 -0.10831261 C114.05541884 -0.11799368 117.78663888 -0.11807274 121.51798439 -0.11079597 C123.53876456 -0.10925171 125.55954471 -0.11759695 127.58030701 -0.12623596 C128.78606888 -0.12204147 129.99183075 -0.11784698 131.23413086 -0.11352539 C132.80316949 -0.11434254 132.80316949 -0.11434254 134.40390587 -0.1151762 C137.40009451 0.14738743 139.55435043 0.80729003 142.24404907 2.13371277 C144.41124113 4.79344847 144.23939771 6.22208873 144.05654907 9.69621277 C143.00340543 14.15182047 143.00340543 14.15182047 140.24404907 16.13371277 C137.55909061 16.51682281 137.55909061 16.51682281 134.25358582 16.52812195 C133.00153351 16.53947174 131.7494812 16.55082153 130.45948792 16.56251526 C129.06939633 16.55987184 127.67930535 16.5569006 126.28921509 16.55363464 C124.82729441 16.56097289 123.36537954 16.5695584 121.9034729 16.57929993 C117.93031705 16.60155051 113.95736836 16.60444486 109.98415875 16.60255241 C106.66893857 16.60243288 103.35376254 16.61099012 100.03855461 16.61932993 C92.21826966 16.63857672 84.39809146 16.64144318 76.57778931 16.63468933 C68.50638211 16.62804698 60.43543173 16.65091748 52.36411721 16.68800306 C45.43748541 16.71867597 38.51100074 16.73006274 31.58430237 16.72616625 C27.44588371 16.72409625 23.30782047 16.72961612 19.16946602 16.75405884 C15.27786866 16.7762841 11.38701516 16.77448428 7.49541473 16.75413132 C6.06674818 16.7507137 4.63803196 16.75584286 3.2094326 16.7701149 C1.26019835 16.78824532 -0.68926321 16.77258379 -2.63850403 16.75517273 C-3.72969764 16.75588524 -4.82089125 16.75659775 -5.94515133 16.75733185 C-8.75595093 16.13371277 -8.75595093 16.13371277 -11.14219761 13.82143402 C-12.75595093 11.13371277 -12.75595093 11.13371277 -12.69345093 7.50871277 C-11.43849061 2.99085563 -11.43849061 2.99085563 -8.75595093 1.13371277 C-5.58156838 0.07558525 -3.33477747 0.00534652 0 0 Z " fill="#000000" transform="translate(274.7559509277344,196.8662872314453)"/>
<path d="M0 0 C1.20012222 -0.00571014 2.40024445 -0.01142029 3.63673401 -0.01730347 C4.95524857 -0.01842133 6.27376312 -0.01953918 7.63223267 -0.02069092 C9.03341299 -0.02531971 10.43459206 -0.03034445 11.83576965 -0.03573608 C15.64365704 -0.04885532 19.45152681 -0.05530399 23.25943327 -0.05974674 C25.63829632 -0.06267794 28.01715455 -0.06678282 30.39601517 -0.07125092 C37.83854855 -0.08492394 45.28107093 -0.09459183 52.723616 -0.09845281 C61.31584216 -0.1029347 69.90790933 -0.12048943 78.50008714 -0.1494534 C85.14136309 -0.1710642 91.78259428 -0.18115675 98.42390501 -0.18249393 C102.39069138 -0.18354229 106.35732825 -0.18945685 110.32407761 -0.20731354 C114.05545942 -0.22378414 117.78657919 -0.22595479 121.51798439 -0.21717453 C123.53877795 -0.21603626 125.55956278 -0.22976101 127.58030701 -0.243927 C129.38894981 -0.23557327 129.38894981 -0.23557327 131.23413086 -0.22705078 C132.28015661 -0.22851734 133.32618237 -0.2299839 134.40390587 -0.2314949 C137.72128503 0.20293931 139.5668372 1.15931651 142.24404907 3.14044189 C144.24404907 6.14044189 144.24404907 6.14044189 144.05654907 9.64044189 C143.00691375 14.1619479 143.00691375 14.1619479 140.24404907 16.14044189 C137.55909061 16.52355194 137.55909061 16.52355194 134.25358582 16.53485107 C133.00153351 16.54620087 131.7494812 16.55755066 130.45948792 16.56924438 C129.06939633 16.56660097 127.67930535 16.56362972 126.28921509 16.56036377 C124.82729441 16.56770201 123.36537954 16.57628753 121.9034729 16.58602905 C117.93031705 16.60827964 113.95736836 16.61117399 109.98415875 16.60928154 C106.66893857 16.609162 103.35376254 16.61771925 100.03855461 16.62605906 C92.21826966 16.64530584 84.39809146 16.6481723 76.57778931 16.64141846 C68.50638211 16.63477611 60.43543173 16.65764661 52.36411721 16.69473219 C45.43748541 16.7254051 38.51100074 16.73679187 31.58430237 16.73289537 C27.44588371 16.73082538 23.30782047 16.73634524 19.16946602 16.76078796 C15.27786866 16.78301323 11.38701516 16.7812134 7.49541473 16.76086044 C6.06674818 16.75744282 4.63803196 16.76257198 3.2094326 16.77684402 C1.26019835 16.79497444 -0.68926321 16.77931291 -2.63850403 16.76190186 C-3.72969764 16.76261436 -4.82089125 16.76332687 -5.94515133 16.76406097 C-8.75595093 16.14044189 -8.75595093 16.14044189 -11.14219761 13.82816315 C-12.75595093 11.14044189 -12.75595093 11.14044189 -12.69345093 7.51544189 C-11.43849061 2.99758475 -11.43849061 2.99758475 -8.75595093 1.14044189 C-5.58369386 0.08302287 -3.33261897 0.00948406 0 0 Z " fill="#000000" transform="translate(274.7559509277344,242.85955810546875)"/>
<path d="M0 0 C2.2645456 1.83464524 2.45153644 3.09898423 2.7734375 5.99609375 C2.37472138 10.06299815 1.57509979 11.5365558 -1.5390625 14.18359375 C-7.5198042 15.09591028 -11.04557212 13.64379393 -16.390625 11.08984375 C-21.45197573 8.95487399 -25.69228474 10.06076051 -30.6640625 11.80859375 C-36.75041319 14.45001453 -39.66741939 17.8787716 -42.4140625 23.93359375 C-44.2724381 29.53008119 -43.92799857 35.07451378 -41.5234375 40.45703125 C-38.52809004 45.55670509 -35.19899184 49.00140293 -29.7265625 51.43359375 C-22.87740631 53.04515991 -18.4211643 52.59176529 -12.30078125 49.3515625 C-10.47377447 48.24092032 -10.47377447 48.24092032 -9.0546875 46.57421875 C-7.5390625 45.18359375 -7.5390625 45.18359375 -3.6015625 44.74609375 C-0.66481416 44.87589478 0.39254709 45.14084974 2.9609375 46.74609375 C5.08104895 50.19127486 5.07908676 52.19996518 4.4609375 56.18359375 C0.51425844 62.35027978 -5.03645665 65.74134428 -11.7265625 68.49609375 C-22.93883339 70.51797866 -33.38090072 69.56872727 -43.1640625 63.55859375 C-52.42035317 56.90717072 -57.64296597 49.08399596 -60.2890625 38.05859375 C-61.26129172 26.87795774 -59.66508972 16.96134085 -52.78125 7.859375 C-39.19004462 -8.26352551 -17.86424129 -11.70290093 0 0 Z " fill="#000000" transform="translate(332.5390625,84.81640625)"/>
<path d="M0 0 C1.25205231 -0.01134979 2.50410461 -0.02269958 3.7940979 -0.03439331 C5.18418948 -0.03174989 6.57428047 -0.02877865 7.96437073 -0.0255127 C9.4262914 -0.03285094 10.88820628 -0.04143645 12.35011292 -0.05117798 C16.32326877 -0.07342857 20.29621745 -0.07632292 24.26942706 -0.07443047 C27.58464725 -0.07431093 30.89982328 -0.08286817 34.21503121 -0.09120798 C42.03531616 -0.11045477 49.85549436 -0.11332123 57.67579651 -0.10656738 C65.7472037 -0.09992503 73.81815408 -0.12279553 81.88946861 -0.15988111 C88.81610041 -0.19055403 95.74258507 -0.20194079 102.66928345 -0.1980443 C106.80770211 -0.1959743 110.94576535 -0.20149417 115.0841198 -0.22593689 C118.97571715 -0.24816215 122.86657065 -0.24636233 126.75817108 -0.22600937 C128.18683764 -0.22259175 129.61555386 -0.22772091 131.04415321 -0.24199295 C132.99338747 -0.26012337 134.94284903 -0.24446184 136.89208984 -0.22705078 C138.52888026 -0.22811954 138.52888026 -0.22811954 140.19873714 -0.2292099 C143.00953674 0.39440918 143.00953674 0.39440918 145.39578342 2.70668793 C147.00953674 5.39440918 147.00953674 5.39440918 146.94703674 9.01940918 C145.72115216 13.43259366 145.72115216 13.43259366 143.00953674 15.39440918 C140.32457829 15.77751923 140.32457829 15.77751923 137.01907349 15.78881836 C135.76702118 15.80016815 134.51496887 15.81151794 133.22497559 15.82321167 C131.83488401 15.82056825 130.44479302 15.81759701 129.05470276 15.81433105 C127.59278208 15.8216693 126.13086721 15.83025481 124.66896057 15.83999634 C120.69580472 15.86224693 116.72285603 15.86514128 112.74964643 15.86324883 C109.43442624 15.86312929 106.11925021 15.87168653 102.80404228 15.88002634 C94.98375733 15.89927313 87.16357913 15.90213959 79.34327698 15.89538574 C71.27186978 15.88874339 63.2009194 15.91161389 55.12960488 15.94869947 C48.20297308 15.97937238 41.27648841 15.99075915 34.34979004 15.98686266 C30.21137138 15.98479266 26.07330814 15.99031253 21.93495369 16.01475525 C18.04335633 16.03698051 14.15250283 16.03518069 10.2609024 16.01482773 C8.83223585 16.01141011 7.40351963 16.01653927 5.97492027 16.03081131 C4.02568602 16.04894173 2.07622446 16.0332802 0.12698364 16.01586914 C-0.96420997 16.01658165 -2.05540358 16.01729416 -3.17966366 16.01802826 C-5.99046326 15.39440918 -5.99046326 15.39440918 -8.37670994 13.08213043 C-9.99046326 10.39440918 -9.99046326 10.39440918 -9.92796326 6.76940918 C-8.26127887 0.76934538 -6.05379507 0.02069355 0 0 Z " fill="#000000" transform="translate(271.99046325683594,381.6055908203125)"/>
<path d="M0 0 C1.25205231 -0.01134979 2.50410461 -0.02269958 3.7940979 -0.03439331 C5.18418948 -0.03174989 6.57428047 -0.02877865 7.96437073 -0.0255127 C9.4262914 -0.03285094 10.88820628 -0.04143645 12.35011292 -0.05117798 C16.32326877 -0.07342857 20.29621745 -0.07632292 24.26942706 -0.07443047 C27.58464725 -0.07431093 30.89982328 -0.08286817 34.21503121 -0.09120798 C42.03531616 -0.11045477 49.85549436 -0.11332123 57.67579651 -0.10656738 C65.7472037 -0.09992503 73.81815408 -0.12279553 81.88946861 -0.15988111 C88.81610041 -0.19055403 95.74258507 -0.20194079 102.66928345 -0.1980443 C106.80770211 -0.1959743 110.94576535 -0.20149417 115.0841198 -0.22593689 C118.97571715 -0.24816215 122.86657065 -0.24636233 126.75817108 -0.22600937 C128.18683764 -0.22259175 129.61555386 -0.22772091 131.04415321 -0.24199295 C132.99338747 -0.26012337 134.94284903 -0.24446184 136.89208984 -0.22705078 C138.52888026 -0.22811954 138.52888026 -0.22811954 140.19873714 -0.2292099 C143.00953674 0.39440918 143.00953674 0.39440918 145.39578342 2.70668793 C147.00953674 5.39440918 147.00953674 5.39440918 146.94703674 9.01940918 C145.72115216 13.43259366 145.72115216 13.43259366 143.00953674 15.39440918 C140.32457829 15.77751923 140.32457829 15.77751923 137.01907349 15.78881836 C135.76702118 15.80016815 134.51496887 15.81151794 133.22497559 15.82321167 C131.83488401 15.82056825 130.44479302 15.81759701 129.05470276 15.81433105 C127.59278208 15.8216693 126.13086721 15.83025481 124.66896057 15.83999634 C120.69580472 15.86224693 116.72285603 15.86514128 112.74964643 15.86324883 C109.43442624 15.86312929 106.11925021 15.87168653 102.80404228 15.88002634 C94.98375733 15.89927313 87.16357913 15.90213959 79.34327698 15.89538574 C71.27186978 15.88874339 63.2009194 15.91161389 55.12960488 15.94869947 C48.20297308 15.97937238 41.27648841 15.99075915 34.34979004 15.98686266 C30.21137138 15.98479266 26.07330814 15.99031253 21.93495369 16.01475525 C18.04335633 16.03698051 14.15250283 16.03518069 10.2609024 16.01482773 C8.83223585 16.01141011 7.40351963 16.01653927 5.97492027 16.03081131 C4.02568602 16.04894173 2.07622446 16.0332802 0.12698364 16.01586914 C-0.96420997 16.01658165 -2.05540358 16.01729416 -3.17966366 16.01802826 C-5.99046326 15.39440918 -5.99046326 15.39440918 -8.37670994 13.08213043 C-9.99046326 10.39440918 -9.99046326 10.39440918 -9.92796326 6.76940918 C-8.26127887 0.76934538 -6.05379507 0.02069355 0 0 Z " fill="#000000" transform="translate(271.99046325683594,335.6055908203125)"/>
<path d="M0 0 C3.49956474 4.40509659 5.26200366 8.94099882 6.98046875 14.20703125 C7.23878983 14.97303146 7.4971109 15.73903168 7.76325989 16.52824402 C8.57970363 18.95362182 9.38417135 21.3827502 10.1875 23.8125 C11.00359787 26.259353 11.82219054 28.70533179 12.64387512 31.15031433 C13.15287081 32.66706752 13.65825813 34.18503724 14.15971375 35.70429993 C15.09864585 39.12044664 15.09864585 39.12044664 17 42 C17.37809814 40.86981445 17.75619629 39.73962891 18.14575195 38.57519531 C19.55284284 34.37572244 20.96965645 30.179584 22.3894043 25.984375 C23.00208229 24.16951291 23.61213329 22.35376173 24.21948242 20.53710938 C25.09382114 17.92338709 25.97761206 15.31302635 26.86328125 12.703125 C27.13215652 11.89256653 27.4010318 11.08200806 27.67805481 10.24688721 C30.23370637 2.77298088 30.23370637 2.77298088 33 0 C36.375 -1 36.375 -1 40 -1 C43.30243375 0.79480095 44.67429401 1.96113915 45.80493164 5.56738281 C46.07244354 10.27478866 44.76191891 13.93923791 43.24609375 18.359375 C42.94816422 19.26262512 42.65023468 20.16587524 42.34327698 21.09649658 C41.38717472 23.98532777 40.41271578 26.86757217 39.4375 29.75 C38.80801958 31.64151979 38.17975299 33.53344398 37.55273438 35.42578125 C36.31604818 39.15307263 35.06649155 42.87568639 33.80810547 46.59570312 C32.61262244 50.14055014 31.45675427 53.69437993 30.33642578 57.26367188 C30.0738649 58.08796692 29.81130402 58.91226196 29.54078674 59.76153564 C29.05275861 61.29808366 28.57399627 62.83761958 28.10655212 64.3805542 C26.77476153 68.53384593 25.41860107 71.24663791 22 74 C19.17998673 75.41000664 17.12992745 75.24548451 14 75 C11.29168805 73.91672828 9.51584962 72.92899438 8.07250977 70.3296814 C7.18552262 68.14296162 6.42331807 65.94137735 5.6875 63.69921875 C5.08742159 61.97177921 4.48715355 60.24440554 3.88671875 58.51708984 C3.42531494 57.16016022 3.42531494 57.16016022 2.95458984 55.77581787 C1.68880787 52.09509546 0.34982309 48.44292205 -0.98925781 44.7883606 C-2.34383455 41.07763013 -3.66870788 37.35661065 -4.99169922 33.63452148 C-5.67176515 31.7311602 -6.35844396 29.83015044 -7.05126953 27.93139648 C-8.07125941 25.13296882 -9.06898257 22.32744917 -10.0625 19.51953125 C-10.37380859 18.67985306 -10.68511719 17.84017487 -11.00585938 16.97505188 C-12.90702258 11.50710553 -13.31182233 7.67841753 -12 2 C-8.23358607 -1.65563705 -4.87306051 -1.5062187 0 0 Z " fill="#000000" transform="translate(368,79)"/>
<path d="M0 0 C1.1177758 -0.01029488 1.1177758 -0.01029488 2.25813293 -0.02079773 C4.71720522 -0.03907409 7.17564011 -0.03522764 9.63476562 -0.02954102 C11.34582731 -0.03410207 13.05688716 -0.03940741 14.76794434 -0.04542542 C18.35237068 -0.05435786 21.93657423 -0.0519315 25.52099609 -0.04199219 C30.11464659 -0.0304956 34.70752919 -0.05072344 39.3010788 -0.07990932 C42.83385095 -0.09825282 46.36643839 -0.09798271 49.89924622 -0.0922718 C51.59293191 -0.0921184 53.28662997 -0.09817876 54.98027039 -0.11056328 C57.34801479 -0.1254391 59.71433159 -0.11482335 62.08203125 -0.09765625 C62.78137283 -0.10732422 63.48071442 -0.11699219 64.20124817 -0.12695312 C67.56116096 -0.07593175 69.2660137 0.18942665 71.9486084 2.2830658 C73.84005509 4.80235462 74.46405521 6.24867586 74.54101562 9.40405273 C72.91945934 12.89039875 71.77648271 14.24707468 68.54101562 16.40405273 C65.35987854 16.65802002 65.35987854 16.65802002 61.37915039 16.6628418 C60.29085434 16.66809875 60.29085434 16.66809875 59.18057251 16.67346191 C56.78109176 16.68226764 54.38190566 16.67643365 51.98242188 16.66967773 C50.31477298 16.67102487 48.64712447 16.6729658 46.97947693 16.67547607 C43.48326887 16.67842588 39.98716298 16.67413485 36.4909668 16.66479492 C32.01071556 16.65340928 27.53070417 16.65995508 23.05046177 16.67193985 C19.60607601 16.67916986 16.16174702 16.67686512 12.71735954 16.67168427 C11.06555083 16.67035047 9.41373696 16.67198605 7.76193428 16.67664337 C5.45190933 16.68172637 3.14227154 16.67397323 0.83227539 16.6628418 C-0.48216049 16.66125061 -1.79659637 16.65965942 -3.15086365 16.65802002 C-6.23732888 16.42106942 -7.92024383 16.10447035 -10.45898438 14.40405273 C-12.54057457 11.72772248 -12.45486028 10.28651606 -12.33398438 6.84155273 C-11.45898438 3.40405273 -11.45898438 3.40405273 -9.8704834 1.71446228 C-6.60123462 -0.06204883 -3.62801471 -0.02335346 0 0 Z " fill="#000000" transform="translate(274.458984375,428.595947265625)"/>
<path d="M0 0 C0.68505615 -0.00335861 1.3701123 -0.00671722 2.07592773 -0.01017761 C4.33522364 -0.0196583 6.59444522 -0.02162918 8.85375977 -0.02270508 C10.42790253 -0.02591935 12.002045 -0.02928356 13.57618713 -0.03279114 C16.8738779 -0.03877497 20.17154247 -0.04063177 23.46923828 -0.04003906 C27.69039696 -0.03993741 31.91138754 -0.05359595 36.13250637 -0.07081127 C39.3830492 -0.08194021 42.63355148 -0.08395801 45.8841114 -0.08342934 C47.44020226 -0.08460786 48.99629421 -0.08902247 50.55236626 -0.0967617 C52.73034258 -0.10658097 54.90795507 -0.10367622 57.0859375 -0.09765625 C58.324077 -0.09908127 59.56221649 -0.10050629 60.83787537 -0.10197449 C65.27743963 0.23371358 68.06753421 0.97092131 71.04516602 4.33276367 C72.51447937 8.22212255 71.6106614 10.3519896 70.10766602 14.14526367 C67.26650482 16.98642486 64.49729253 16.44817275 60.69213867 16.45166016 C59.54554024 16.46414543 59.54554024 16.46414543 58.3757782 16.47688293 C55.84104362 16.50103914 53.3065661 16.50976195 50.77172852 16.51635742 C49.01296916 16.52531978 47.25421061 16.53444154 45.49545288 16.54371643 C41.8049738 16.56022446 38.11458564 16.56790978 34.42407227 16.57080078 C29.69352659 16.57618529 24.96383458 16.61385979 20.23353004 16.65954494 C16.59954709 16.6892794 12.96577053 16.69652355 9.33167648 16.69752693 C7.58772244 16.70173677 5.8437682 16.71420166 4.09993362 16.73504448 C1.6599775 16.76188437 -0.77798952 16.75715697 -3.21801758 16.74462891 C-3.93920273 16.7594632 -4.66038788 16.77429749 -5.40342712 16.7895813 C-9.108541 16.73537185 -10.62418538 16.39477094 -13.37588501 13.83436584 C-15.44386084 10.16724721 -15.00199333 8.14003732 -13.89233398 4.14526367 C-10.57175569 -0.5984196 -5.31790604 0.0163825 0 0 Z " fill="#000000" transform="translate(276.892333984375,288.854736328125)"/>
</svg>
